<svg xmlns="http://www.w3.org/2000/svg" viewBox="0 0 1200 140" preserveAspectRatio="xMidYMax slice">
  <defs>
    <linearGradient id="sky" x1="0" y1="0" x2="0" y2="1">
      <stop offset="0%" stop-color="#b8d8f0" stop-opacity="0"/>
      <stop offset="100%" stop-color="#98c0e0" stop-opacity="0.55"/>
    </linearGradient>
  </defs>
  <rect width="1200" height="140" fill="url(#sky)"/>
  <g fill="#a0bcd8" opacity="0.65">
    <rect x="80" y="60" width="28" height="80"/>
    <rect x="120" y="40" width="22" height="100"/>
    <rect x="200" y="70" width="40" height="70"/>
    <path d="M280 140 L300 30 L320 140 Z"/>
    <rect x="340" y="50" width="18" height="90"/>
    <circle cx="400" cy="55" r="18"/>
    <rect x="385" y="73" width="30" height="67"/>
    <rect x="450" y="35" width="35" height="105"/>
    <rect x="520" y="55" width="50" height="85"/>
    <path d="M600 140 L640 20 L680 140 Z"/>
    <rect x="720" y="45" width="30" height="95"/>
    <rect x="780" y="65" width="45" height="75"/>
    <rect x="860" y="30" width="25" height="110"/>
    <path d="M920 140 L960 50 L1000 140 Z"/>
    <rect x="1020" y="55" width="60" height="85"/>
    <rect x="1100" y="70" width="35" height="70"/>
  </g>
</svg>
