<svg xmlns="http://www.w3.org/2000/svg" viewBox="0 0 76 92">
  <ellipse cx="38" cy="88" rx="34" ry="5" fill="#000" opacity="0.14"/>
  <path d="M10 62 L38 48 L66 62 L38 74 Z" fill="#7a7a72"/>
  <path d="M14 58 L38 46 L38 72 L14 62 Z" fill="#b0b0a8"/>
  <path d="M38 46 L62 58 L38 72 L38 46 Z" fill="#989890"/>
  <path d="M16 18 L38 4 L60 18 L38 28 Z" fill="#a8a8a0"/>
  <path d="M18 16 L38 6 L38 26 L18 20 Z" fill="#d0d0c8"/>
  <path d="M38 6 L58 16 L38 26 L38 6 Z" fill="#b8b8b0"/>
  <g fill="#87ceeb" stroke="#5a8090" stroke-width="0.5">
    <rect x="20" y="24" width="7" height="6"/><rect x="30" y="24" width="7" height="6"/><rect x="48" y="24" width="7" height="6"/>
    <rect x="20" y="34" width="7" height="6"/><rect x="30" y="34" width="7" height="6"/><rect x="48" y="34" width="7" height="6"/>
    <rect x="20" y="44" width="7" height="6"/><rect x="30" y="44" width="7" height="6"/><rect x="48" y="44" width="7" height="6"/>
    <rect x="20" y="54" width="7" height="6"/><rect x="48" y="54" width="7" height="6"/>
  </g>
  <rect x="34" y="56" width="8" height="12" fill="#606058"/>
</svg>
