<svg xmlns="http://www.w3.org/2000/svg" viewBox="0 0 76 84">
  <ellipse cx="38" cy="80" rx="32" ry="5" fill="#000" opacity="0.12"/>
  <path d="M12 56 L38 42 L64 56 L38 68 Z" fill="#9a8878"/>
  <path d="M16 52 L38 40 L38 66 L16 56 Z" fill="#e8dcc8"/>
  <path d="M38 40 L62 52 L38 66 L38 40 Z" fill="#d0c4b0"/>
  <path d="M18 20 L38 8 L58 20 L38 30 Z" fill="#c8b8a0"/>
  <path d="M20 18 L38 10 L38 28 L20 22 Z" fill="#f0e8d8"/>
  <path d="M38 10 L56 18 L38 28 L38 10 Z" fill="#dcd0c0"/>
  <rect x="22" y="34" width="8" height="10" fill="#6ab0e8" opacity="0.8"/>
  <rect x="32" y="32" width="8" height="12" fill="#6ab0e8" opacity="0.85"/>
  <rect x="44" y="34" width="8" height="10" fill="#5aa0d8" opacity="0.75"/>
  <path d="M34 8 L42 8 L42 14 L34 14 Z" fill="#8a3020"/>
  <path d="M36 6 L40 2 L44 6 L40 10 Z" fill="#6a2010"/>
</svg>
