<svg xmlns="http://www.w3.org/2000/svg" viewBox="0 0 90 84">
  <ellipse cx="45" cy="80" rx="40" ry="5" fill="#000" opacity="0.14"/>
  <path d="M6 58 L45 42 L84 58 L45 70 Z" fill="#7a6a58"/>
  <path d="M10 54 L45 40 L45 68 L10 58 Z" fill="#b0a090"/>
  <path d="M45 40 L80 54 L45 68 L45 40 Z" fill="#968878"/>
  <path d="M12 32 L45 16 L78 32 L45 44 Z" fill="#8a7a68"/>
  <path d="M14 30 L45 18 L45 42 L14 34 Z" fill="#c8b8a8"/>
  <path d="M45 18 L76 30 L45 42 L45 18 Z" fill="#a89888"/>
  <rect x="62" y="4" width="12" height="32" fill="#686058"/>
  <rect x="64" y="0" width="8" height="10" fill="#787068"/>
  <ellipse cx="68" cy="-2" rx="6" ry="4" fill="#a0a0a8" opacity="0.45"/>
  <ellipse cx="74" cy="-4" rx="5" ry="3" fill="#b8b8c0" opacity="0.35"/>
  <rect x="18" y="38" width="18" height="18" fill="#504840"/>
  <rect x="54" y="38" width="16" height="18" fill="#484038"/>
  <rect x="38" y="44" width="10" height="12" fill="#383028"/>
</svg>
