<svg xmlns="http://www.w3.org/2000/svg" viewBox="0 0 86 80">
  <ellipse cx="43" cy="76" rx="38" ry="5" fill="#000" opacity="0.14"/>
  <path d="M8 56 L43 40 L78 56 L43 68 Z" fill="#5a6070"/>
  <path d="M12 52 L43 38 L43 66 L12 56 Z" fill="#8890a0"/>
  <path d="M43 38 L74 52 L43 66 L43 38 Z" fill="#707880"/>
  <path d="M14 28 L43 12 L72 28 L43 38 Z" fill="#6a7080"/>
  <path d="M16 26 L43 14 L43 36 L16 30 Z" fill="#a8b0c0"/>
  <path d="M43 14 L70 26 L43 36 L43 14 Z" fill="#9098a8"/>
  <circle cx="43" cy="22" r="10" fill="#d0a030" stroke="#a08020" stroke-width="2"/>
  <circle cx="43" cy="22" r="4" fill="#806010"/>
  <g stroke="#606870" stroke-width="2" fill="none">
    <line x1="43" y1="12" x2="43" y2="6"/><line x1="53" y1="16" x2="58" y2="12"/>
    <line x1="33" y1="16" x2="28" y2="12"/><line x1="51" y1="26" x2="56" y2="30"/>
    <line x1="35" y1="26" x2="30" y2="30"/>
  </g>
  <rect x="20" y="40" width="14" height="16" fill="#404850"/>
  <rect x="52" y="40" width="14" height="16" fill="#383c44"/>
</svg>
