<svg xmlns="http://www.w3.org/2000/svg" viewBox="0 0 84 88">
  <ellipse cx="42" cy="84" rx="36" ry="5" fill="#000" opacity="0.12"/>
  <path d="M10 58 L42 42 L74 58 L42 72 Z" fill="#6a1818"/>
  <path d="M14 54 L42 40 L42 70 L14 58 Z" fill="#9a2828"/>
  <path d="M42 40 L70 54 L42 70 L42 40 Z" fill="#7a2020"/>
  <path d="M8 44 L42 26 L76 44 L42 52 Z" fill="#d4a820"/>
  <path d="M12 40 L42 28 L42 50 L12 44 Z" fill="#e8c040"/>
  <path d="M42 28 L72 40 L42 50 L42 28 Z" fill="#c89018"/>
  <path d="M16 32 L42 18 L68 32 L42 40 Z" fill="#f0d050"/>
  <circle cx="42" cy="22" r="6" fill="#e8b830"/>
  <path d="M38 48 L46 48 L46 68 L38 68 Z" fill="#3a1010"/>
  <rect x="30" y="52" width="6" height="10" fill="#ffd080" opacity="0.6"/>
  <rect x="48" y="52" width="6" height="10" fill="#ffd080" opacity="0.5"/>
</svg>
