<svg xmlns="http://www.w3.org/2000/svg" viewBox="0 0 64 116">
  <ellipse cx="32" cy="112" rx="26" ry="4" fill="#000" opacity="0.14"/>
  <path d="M14 72 L32 60 L50 72 L32 80 Z" fill="#3a6898"/>
  <path d="M16 68 L32 58 L32 78 L16 72 Z" fill="#68b0e0"/>
  <path d="M32 58 L48 68 L32 78 L32 58 Z" fill="#5090c0"/>
  <path d="M20 8 L32 0 L44 8 L32 14 Z" fill="#a0d0f8"/>
  <path d="M22 12 L32 4 L32 52 L22 20 Z" fill="#88c8f0"/>
  <path d="M32 4 L42 12 L32 52 L32 4 Z" fill="#60a8e0"/>
  <path d="M24 20 L32 14 L40 20 L32 48 Z" fill="#78b8e8" opacity="0.9"/>
  <path d="M26 28 L32 22 L38 28 L32 44 Z" fill="#98d0f8" opacity="0.85"/>
  <path d="M28 36 L32 30 L36 36 L32 40 Z" fill="#b8e0ff"/>
  <line x1="32" y1="0" x2="32" y2="-4" stroke="#c0d8f0" stroke-width="2"/>
</svg>
